<svg xmlns="http://www.w3.org/2000/svg" viewBox="0 0 312.5 353.38"><defs><style>.cls-1{fill:#999;}.cls-1,.cls-2{stroke:#6cc;}.cls-1,.cls-2,.cls-3,.cls-4,.cls-5,.cls-6{stroke-miterlimit:10;}.cls-1,.cls-2,.cls-3,.cls-4{stroke-width:5px;}.cls-2,.cls-3,.cls-5{fill:none;}.cls-3,.cls-4,.cls-5{stroke:#ccc;}.cls-4{fill:#ccc;}.cls-5,.cls-6{stroke-width:6px;}.cls-6{fill:#b3b3b3;stroke:#b3b3b3;}</style></defs><title>Asset 4</title><g id="Layer_2" data-name="Layer 2"><g id="Layer_1-2" data-name="Layer 1"><polyline class="cls-1" points="180.83 69.67 181.57 268.21 52.41 268.21 310 268.21 310 268.21"/><polyline class="cls-1" points="52.41 268.21 52.41 350.88 310 350.88 310 268.21"/><polyline class="cls-1" points="180.83 3.24 310 3.24 310 70.41 310 268.95 180.83 268.95 52.41 268.95 52.41 3.24 180.83 3.24"/><polyline class="cls-1" points="180.83 2.5 180.83 69.67 245.42 69.67 310 69.67"/><polygon class="cls-2" points="52.41 2.5 52.41 350.88 310 350.88 310 2.5 180.83 2.5 52.41 2.5"/><polyline class="cls-3" points="0 116.71 0 116.71 0 116.71"/><polyline class="cls-1" points="180.83 69.67 180.83 268.21 180.83 268.21"/><rect class="cls-4" x="152.25" y="305.67" width="57.57" height="7.75"/><rect class="cls-4" x="155.02" y="111.74" width="7.75" height="57.57"/><line class="cls-5" x1="245.05" y1="69.67" x2="245.05" y2="86.64"/><polygon class="cls-5" points="245.05 86.64 205.93 113.21 284.17 113.21 245.05 86.64"/><polygon class="cls-6" points="67.54 16.89 67.54 256.04 79.34 256.04 67.54 16.89"/></g></g></svg>