<svg xmlns="http://www.w3.org/2000/svg" viewBox="0 0 268.26 381.43"><defs><style>.cls-1{fill:#999;stroke:#6cc;stroke-width:5px;}.cls-1,.cls-3{stroke-miterlimit:10;}.cls-2{fill:#6cc;}.cls-3{fill:#b3b3b3;stroke:#b3b3b3;}</style></defs><title>Asset 2</title><g id="Layer_2" data-name="Layer 2"><g id="Layer_1-2" data-name="Layer 1"><path class="cls-1" d="M114.65,2.64S44.05,13.91,50.81,94.27c0,0,9,60.84,74.36,67.6,0,0,63.09,1.5,81.87-59.34C207,102.53,228.07-1.86,114.65,2.64Z"/><path class="cls-1" d="M82.11,162.24s46.57,36.81,94.63,0c0,0,57.09-.75,88.63,216.31l-262.5.38S34,154,82.11,162.24Z"/><path class="cls-2" d="M92.9,370.08h26.42s.74.37,2.57-2.57v-120s-.36-2.94-2.93-2.94H92.9s-1.47,0-2.2,2.94,0,118.91,0,118.91S90.33,367.14,92.9,370.08Z"/><path class="cls-2" d="M133.32,370.08h26.43s.73.31,2.57-2.13V268.14a2.92,2.92,0,0,0-2.94-2.44H133.32s-1.46,0-2.2,2.44,0,98.89,0,98.89S130.75,367.64,133.32,370.08Z"/><path class="cls-2" d="M175.14,370.08h26.5s.73.23,2.57-1.61V293.26s-.37-1.84-2.94-1.84H175.14a2.58,2.58,0,0,0-2.21,1.84c-.73,1.84,0,74.52,0,74.52S172.57,368.24,175.14,370.08Z"/><path class="cls-2" d="M216.3,370.09h26.5s.73.15,2.57-1.07V319.1s-.37-1.22-2.94-1.22H216.3a2.76,2.76,0,0,0-2.21,1.22c-.73,1.22,0,49.46,0,49.46S213.73,368.87,216.3,370.09Z"/><path class="cls-3" d="M95.87,19.55s-21.48,94.5,29.26,124.75C111,154.08,17.78,105.55,95.87,19.55Z"/><path class="cls-3" d="M76.87,175.55s-47,67-57,195h29S84.87,184.55,76.87,175.55Z"/></g></g></svg>