<svg xmlns="http://www.w3.org/2000/svg" viewBox="0 0 268.26 381.43"><defs><style>.cls-1,.cls-3{fill:#999;stroke:#6cc;}.cls-1,.cls-2,.cls-3,.cls-4,.cls-5,.cls-6{stroke-miterlimit:10;}.cls-1,.cls-6{stroke-width:5px;}.cls-2,.cls-5{fill:#b3b3b3;}.cls-2{stroke:#b3b3b3;}.cls-3{stroke-width:4px;}.cls-4,.cls-6{fill:none;}.cls-4,.cls-5{stroke:#ccc;stroke-width:2px;}.cls-6{stroke:#666;}</style></defs><title>Asset 5</title><g id="Layer_2" data-name="Layer 2"><g id="Layer_1-2" data-name="Layer 1"><path class="cls-1" d="M114.65,2.64S44.05,13.91,50.81,94.27c0,0,9,60.84,74.36,67.6,0,0,63.09,1.5,81.87-59.34C207,102.53,228.07-1.86,114.65,2.64Z"/><path class="cls-1" d="M82.11,162.24s46.57,36.81,94.63,0c0,0,57.09-.75,88.63,216.31l-262.5.38S34,154,82.11,162.24Z"/><path class="cls-2" d="M95.87,19.55s-21.48,94.5,29.26,124.75C111,154.08,17.78,105.55,95.87,19.55Z"/><path class="cls-2" d="M76.87,175.55s-47,67-57,195h29S84.87,184.55,76.87,175.55Z"/><path class="cls-3" d="M88.7,187.91s-21.4.79-32.39,24l17.27,11.39L78.69,216l.59,54.77H128V215.4l6.29,7.46,17.66-10.6s-18.65-24.54-34-24.54A55.48,55.48,0,0,1,88.7,187.91Z"/><path class="cls-3" d="M112.12,233.33h37.77s6.8,101.72,4.78,102-14.85,0-14.85,0l-8.56-69-8.31,69H108.6S110.11,240.63,112.12,233.33Z"/><path class="cls-4" d="M140.7,239s.76,9.07,10.07,8.82"/><polyline class="cls-5" points="111.62 238.99 127.96 238.92 140.59 238.87 150.25 238.87"/><path class="cls-2" d="M151.18,296.43l1,36.38h-4S151.44,304.8,151.18,296.43Z"/><line class="cls-6" x1="159.61" y1="302.77" x2="175.91" y2="288.33"/><path class="cls-6" d="M94.17,176.6S41,184.75,46.05,242.91c0,0,6.79,44,56.05,48.91,0,0,47.55,1.09,61.71-42.94C163.81,248.88,179.66,173.34,94.17,176.6Z"/><polyline class="cls-6" points="138.55 281.51 159.61 302.3 153.55 310.69 173.65 330.46 210.85 367.05 237.87 339.57 183.83 284.6 175.91 288.33 153.67 268.19"/><line class="cls-6" x1="173.58" y1="330.25" x2="201.71" y2="302.79"/></g></g></svg>