<svg xmlns="http://www.w3.org/2000/svg" viewBox="0 0 232.6 349.5"><defs><style>.cls-1,.cls-6,.cls-7,.cls-8{fill:#999;}.cls-1,.cls-6{stroke:#6cc;}.cls-1,.cls-10,.cls-11,.cls-3,.cls-4,.cls-5,.cls-6,.cls-7,.cls-8,.cls-9{stroke-miterlimit:10;}.cls-1,.cls-10,.cls-11,.cls-7{stroke-width:5px;}.cls-2,.cls-3{fill:#ccc;}.cls-10,.cls-11,.cls-3,.cls-7,.cls-8,.cls-9{stroke:#ccc;}.cls-11,.cls-4,.cls-5{fill:#b3b3b3;}.cls-4,.cls-5{stroke:#b3b3b3;}.cls-4{stroke-width:0.75px;}.cls-6,.cls-8,.cls-9{stroke-width:6px;}.cls-10,.cls-9{fill:none;}</style></defs><title>Asset 3</title><g id="Layer_2" data-name="Layer 2"><g id="Layer_1-2" data-name="Layer 1"><path class="cls-1" d="M72.62,2.92S26.76,4.6,3.19,54.26l37,24.41L51.16,63.1l1.26,117.4H156.78V61.83l13.47,16L208.12,55.1s-40-52.6-72.8-52.6C135.32,2.5,105.87,12.18,72.62,2.92Z"/><path class="cls-2" d="M71.78,7.55s24.41,13.89,64,0C135.74,7.55,101.66,44.58,71.78,7.55Z"/><path class="cls-3" d="M120.12,61h23s-1.5,18.5-12.5,17.5S119.62,60.5,120.12,61Z"/><rect class="cls-4" x="60.53" y="102" width="6.11" height="53.5"/><rect class="cls-5" x="60.5" y="87" width="5.81" height="7.06"/><path class="cls-6" d="M122.38,91.5h94.34s17,254.09,11.95,254.72-37.11,0-37.11,0L170.18,173.89,149.43,346.22H113.58S117.35,109.74,122.38,91.5Z"/><line class="cls-7" x1="169.55" y1="105.34" x2="169.87" y2="174.52"/><path class="cls-8" d="M146.73,105.65s-.13,19.14-26.86,22.33"/><path class="cls-9" d="M193.77,105.65s1.88,22.64,25.15,22"/><path class="cls-10" d="M169.38,134.46s-4.4-.54-7.13-9.92c-1.24-4.23-2.13-10.28-2.13-18.89"/><polyline class="cls-11" points="121.12 105.65 161.94 105.47 193.5 105.34 217.63 105.34"/><path class="cls-5" d="M220,249.12,222.47,340H212.41S220.58,270,220,249.12Z"/><path class="cls-5" d="M124.55,249.12,122,340H132.1S123.92,270,124.55,249.12Z"/></g></g></svg>