<svg xmlns="http://www.w3.org/2000/svg" viewBox="0 0 355.34 297.77"><defs><style>.cls-1{fill:#e6e6e6;stroke:#e6e6e6;}.cls-1,.cls-2,.cls-3,.cls-4,.cls-5{stroke-miterlimit:10;}.cls-2{fill:#999;stroke:#999;}.cls-3{fill:#b3b3b3;stroke:#b3b3b3;}.cls-4{fill:#ccc;stroke:#ccc;}.cls-5{fill:#6cc;stroke:#6cc;}</style></defs><title>Asset 6</title><g id="Layer_2" data-name="Layer 2"><g id="Layer_1-2" data-name="Layer 1"><path class="cls-1" d="M192.41,103.15c.19-2.23-74.27-59.8-106,37,0,0-9,52,52,70,0,0,26,8,52-17l-35-36,157-8c2.18-2.11-105.19,107.26-155,105-48.11-2.19-68-7-97-45s-23-78-23-78C37.74,129.07,104.94,33.17,192.41,103.15Z"/><path class="cls-2" d="M131.41,86.15s-55-8-81,21-37.82,57-36,90c-4-.8-7.27-71.17,29-98,39.93-29.54,40-25,82-27,0,0,43.5,6.5,68,31C193.41,103.15,170.41,78.15,131.41,86.15Z"/><path class="cls-3" d="M131.41,86.15s-12,4-19,11c0,0-47.5-.5-70.5,27.5,0,0-34.62,39.22-24.81,81.11,0,0-10.2-57.65,19.31-85.61C36.41,120.15,57,93,89,87.34S131.41,86.15,131.41,86.15Z"/><path class="cls-4" d="M36.41,133.15s-11.33,67.69,64.34,109.59c0,0,69.62,31.61,115.14-15.24l96.52-78.35-29,134-29-29.5s-45,60.5-145,39c0,0-51-11.5-73-45.5,0,0-20.5-39-21.5-45S8.91,175.65,36.41,133.15Z"/><path class="cls-5" d="M254.41,41.15l-61,62s-49-51-124-19c0,0-102,57-33,163,0,0-61-67-24-158C12.41,89.15,87.41-72.85,254.41,41.15Z"/><polygon class="cls-2" points="241.48 80.59 207.22 148.99 216.02 148.73 237.29 111.87 260.58 105.72 265.15 98.96 242.55 103.92 254.31 80.2 293.01 66.97 296.63 60.24 229.87 72.76 228.28 80.99 241.48 80.59"/><polygon class="cls-2" points="281.59 96.44 250.39 147.37 260.63 146.76 290.44 95.92 281.59 96.44"/><path class="cls-2" d="M296.88,76.15s-5.92,6.63-8.71,11.54L291,86l-2.79,5.65a4.06,4.06,0,0,0,2.79-.74l2.78-2.7.35.74,7.67-8.11a3.59,3.59,0,0,0,0-2.21Z"/><polygon class="cls-2" points="301.26 91.72 308.2 96.69 323.11 93.93 294.38 145.15 302.46 145.03 333.19 92.69 351.31 88.43 354.44 82.22 301.26 91.72"/></g></g></svg>